<svg width="65" height="49" viewBox="0 0 65 49" fill="none" xmlns="http://www.w3.org/2000/svg">
<path d="M42.3482 31.7301L29.0439 6.08832L38.6018 9.15527e-05L55.1456 31.7301H42.3482Z" fill="#F5F5F5"/>
<path d="M6.91211 28.1382L16.4699 22.0088L21.527 31.7308H8.76679L6.91211 28.1382Z" fill="#F5F5F5"/>
<path d="M25.6689 48.0895H28.3891V35.8856H25.6689V48.0895Z" fill="#F5F5F5"/>
<path d="M59.7577 48.3773C56.716 48.3773 54.886 46.6359 54.7871 44.1814H57.6557C57.6557 44.9493 58.0885 46.0737 59.9431 46.1148C61.1796 46.1148 61.7607 45.3058 61.7607 44.7025C61.6865 43.7426 60.5985 43.6603 59.4362 43.4547C58.2739 43.249 57.2848 43.0159 56.5676 42.6045C55.6526 42.0834 55.0344 40.959 55.0344 39.6701C55.0344 37.4898 56.7407 35.7621 59.5846 35.7621C62.3419 35.7621 64.0853 37.3664 64.2707 39.7524H61.5011C61.4763 39.1079 61.3651 38.0932 59.7329 38.0932C58.6325 38.0932 57.903 38.34 57.8412 39.1902C57.8412 40.438 60.1286 40.3557 61.9091 40.8768C63.6154 41.3567 64.7035 42.5359 64.7035 44.1814C64.7035 47.2118 62.4902 48.3773 59.7577 48.3773" fill="#F5F5F5"/>
<path d="M18.1143 17.2502L27.6721 11.1346L38.3922 31.7303H28.3892V34.747H25.669V31.7166L18.1143 17.2502Z" fill="#F5F5F5"/>
<path fill-rule="evenodd" clip-rule="evenodd" d="M18.3612 48.3777C15.1959 48.3777 12.624 45.5118 12.624 42.0426C12.624 38.5323 15.1959 35.7624 18.3612 35.7624C19.5606 35.7624 20.6486 36.1189 21.6007 36.8457V31.731H24.3209V48.0897H21.6007V47.2807C20.6486 47.9663 19.5606 48.3777 18.3612 48.3777V48.3777ZM15.2329 42.0426C15.2329 43.9349 16.692 45.5118 18.4354 45.5118C20.1417 45.5118 21.6007 43.9349 21.6007 42.0426C21.6007 40.1503 20.1417 38.5323 18.4354 38.5323C16.692 38.5323 15.2329 40.1503 15.2329 42.0426" fill="#F5F5F5"/>
<path fill-rule="evenodd" clip-rule="evenodd" d="M38.4659 31.731H41.149V48.0897H38.4659V47.2807C37.551 47.9663 36.4258 48.3777 35.1893 48.3777C32.0611 48.3777 29.4893 45.5118 29.4893 42.0426C29.4893 38.5323 32.0611 35.7624 35.1893 35.7624C36.4258 35.7624 37.5139 36.1189 38.4659 36.8457V31.731V31.731ZM32.1353 42.0426C32.1353 43.9349 33.5943 45.5118 35.2635 45.5118C37.0069 45.5118 38.4659 43.9349 38.4659 42.0426C38.4659 40.1503 37.0069 38.5323 35.2635 38.5323C33.5943 38.5323 32.1353 40.1503 32.1353 42.0426Z" fill="#F5F5F5"/>
<path fill-rule="evenodd" clip-rule="evenodd" d="M47.7645 48.3773C44.6487 48.3773 42.0645 45.5115 42.0645 42.0423C42.0645 38.532 44.6487 35.7621 47.7645 35.7621C48.9639 35.7621 50.0891 36.1186 51.004 36.8454V35.8718H53.7242V48.0894H51.004V47.2804C50.0891 47.966 49.001 48.3773 47.7645 48.3773ZM44.7105 42.0423C44.7105 43.9346 46.1695 45.5115 47.8758 45.5115C49.5821 45.5115 51.004 43.9346 51.004 42.0423C51.004 40.15 49.5821 38.532 47.8758 38.532C46.1695 38.532 44.7105 40.15 44.7105 42.0423Z" fill="#F5F5F5"/>
<path fill-rule="evenodd" clip-rule="evenodd" d="M2.62129 42.0423C2.62129 43.9346 4.08031 45.5115 5.78662 45.5115C7.53002 45.5115 8.98904 43.9346 8.98904 42.0423C8.98904 40.15 7.53002 38.532 5.78662 38.532C4.08031 38.532 2.62129 40.15 2.62129 42.0423V42.0423ZM5.71243 48.3773C2.58419 48.3773 0 45.5115 0 42.0423C0 38.532 2.58419 35.7621 5.71243 35.7621C6.91179 35.7621 8.03697 36.1186 8.98904 36.8454V35.8718H11.6722V48.0894H8.98904V47.2804C8.07407 47.966 6.94889 48.3773 5.71243 48.3773Z" fill="#F5F5F5"/>
</svg>
